<svg xmlns="http://www.w3.org/2000/svg" version="1.1" xmlns:xlink="http://www.w3.org/1999/xlink" xmlns:svgjs="http://svgjs.dev/svgjs" viewBox="0 0 1422 800"><defs><linearGradient x1="50%" y1="0%" x2="50%" y2="100%" id="oooscillate-grad"><stop stop-color="hsl(206, 75%, 49%)" stop-opacity="1" offset="0%"></stop><stop stop-color="hsl(331, 90%, 56%)" stop-opacity="1" offset="100%"></stop></linearGradient></defs><g stroke-width="2.5" stroke="url(#oooscillate-grad)" fill="none" stroke-linecap="round"><path d="M 0 546 Q 355.5 -100 711 400 Q 1066.5 900 1422 546" stroke-dasharray="2 1" opacity="0.55"></path><path d="M 0 532 Q 355.5 -100 711 400 Q 1066.5 900 1422 532" stroke-dasharray="1 1" opacity="0.24"></path><path d="M 0 518 Q 355.5 -100 711 400 Q 1066.5 900 1422 518" opacity="0.26"></path><path d="M 0 504 Q 355.5 -100 711 400 Q 1066.5 900 1422 504" stroke-dasharray="0 2" opacity="0.86"></path><path d="M 0 490 Q 355.5 -100 711 400 Q 1066.5 900 1422 490" stroke-dasharray="2 1" opacity="0.75"></path><path d="M 0 476 Q 355.5 -100 711 400 Q 1066.5 900 1422 476" stroke-dasharray="1 0" opacity="0.83"></path><path d="M 0 462 Q 355.5 -100 711 400 Q 1066.5 900 1422 462" stroke-dasharray="0 1" opacity="0.85"></path><path d="M 0 448 Q 355.5 -100 711 400 Q 1066.5 900 1422 448" stroke-dasharray="0 1" opacity="0.72"></path><path d="M 0 434 Q 355.5 -100 711 400 Q 1066.5 900 1422 434" stroke-dasharray="1 1" opacity="0.72"></path><path d="M 0 420 Q 355.5 -100 711 400 Q 1066.5 900 1422 420" stroke-dasharray="0 2" opacity="0.10"></path><path d="M 0 406 Q 355.5 -100 711 400 Q 1066.5 900 1422 406" stroke-dasharray="0 2" opacity="0.84"></path><path d="M 0 392 Q 355.5 -100 711 400 Q 1066.5 900 1422 392" stroke-dasharray="0 2" opacity="0.82"></path><path d="M 0 378 Q 355.5 -100 711 400 Q 1066.5 900 1422 378" stroke-dasharray="0 2" opacity="0.79"></path><path d="M 0 364 Q 355.5 -100 711 400 Q 1066.5 900 1422 364" stroke-dasharray="1 2" opacity="0.18"></path><path d="M 0 350 Q 355.5 -100 711 400 Q 1066.5 900 1422 350" stroke-dasharray="0 1" opacity="0.60"></path><path d="M 0 336 Q 355.5 -100 711 400 Q 1066.5 900 1422 336" stroke-dasharray="0 2" opacity="0.91"></path><path d="M 0 322 Q 355.5 -100 711 400 Q 1066.5 900 1422 322" stroke-dasharray="1 1" opacity="0.40"></path><path d="M 0 308 Q 355.5 -100 711 400 Q 1066.5 900 1422 308" stroke-dasharray="1 0" opacity="0.56"></path><path d="M 0 294 Q 355.5 -100 711 400 Q 1066.5 900 1422 294" opacity="0.14"></path><path d="M 0 280 Q 355.5 -100 711 400 Q 1066.5 900 1422 280" stroke-dasharray="1 1" opacity="0.36"></path><path d="M 0 266 Q 355.5 -100 711 400 Q 1066.5 900 1422 266" stroke-dasharray="2 2" opacity="0.59"></path><path d="M 0 252 Q 355.5 -100 711 400 Q 1066.5 900 1422 252" stroke-dasharray="1 0" opacity="0.57"></path><path d="M 0 238 Q 355.5 -100 711 400 Q 1066.5 900 1422 238" stroke-dasharray="1 0" opacity="0.32"></path><path d="M 0 224 Q 355.5 -100 711 400 Q 1066.5 900 1422 224" stroke-dasharray="2 0" opacity="0.71"></path><path d="M 0 210 Q 355.5 -100 711 400 Q 1066.5 900 1422 210" stroke-dasharray="1 2" opacity="0.62"></path><path d="M 0 196 Q 355.5 -100 711 400 Q 1066.5 900 1422 196" opacity="0.52"></path><path d="M 0 182 Q 355.5 -100 711 400 Q 1066.5 900 1422 182" stroke-dasharray="2 2" opacity="0.45"></path><path d="M 0 168 Q 355.5 -100 711 400 Q 1066.5 900 1422 168" opacity="0.07"></path><path d="M 0 154 Q 355.5 -100 711 400 Q 1066.5 900 1422 154" stroke-dasharray="2 1" opacity="0.21"></path><path d="M 0 140 Q 355.5 -100 711 400 Q 1066.5 900 1422 140" stroke-dasharray="1 0" opacity="0.90"></path><path d="M 0 126 Q 355.5 -100 711 400 Q 1066.5 900 1422 126" stroke-dasharray="1 0" opacity="0.29"></path><path d="M 0 112 Q 355.5 -100 711 400 Q 1066.5 900 1422 112" stroke-dasharray="1 1" opacity="0.65"></path><path d="M 0 98 Q 355.5 -100 711 400 Q 1066.5 900 1422 98" stroke-dasharray="2 1" opacity="0.20"></path><path d="M 0 84 Q 355.5 -100 711 400 Q 1066.5 900 1422 84" stroke-dasharray="1 2" opacity="0.75"></path><path d="M 0 70 Q 355.5 -100 711 400 Q 1066.5 900 1422 70" opacity="0.39"></path><path d="M 0 56 Q 355.5 -100 711 400 Q 1066.5 900 1422 56" stroke-dasharray="2 1" opacity="0.43"></path><path d="M 0 42 Q 355.5 -100 711 400 Q 1066.5 900 1422 42" stroke-dasharray="2 2" opacity="0.36"></path><path d="M 0 28 Q 355.5 -100 711 400 Q 1066.5 900 1422 28" stroke-dasharray="1 1" opacity="0.54"></path></g></svg>