<svg xmlns="http://www.w3.org/2000/svg" version="1.0" width="1852.000000pt" height="956.000000pt" viewBox="0 0 1852.000000 956.000000" preserveAspectRatio="xMidYMid meet">

<g transform="translate(0.000000,956.000000) scale(0.100000,-0.100000)" fill="#000000" stroke="none">
<path d="M12125 9544 c-27 -8 -57 -16 -65 -18 -72 -18 -542 -139 -566 -147 l-31 -10 -11 -177 c-7 -97 -16 -526 -22 -952 -6 -426 -12 -776 -14 -778 -7 -6 -245 -21 -459 -28 l-209 -7 4 406 3 406 -35 6 c-46 7 -392 53 -495 66 -44 5 -107 14 -140 19 -33 5 -161 23 -285 40 -124 16 -256 34 -295 40 -38 5 -288 39 -555 75 -267 37 -894 122 -1395 190 -500 68 -1197 163 -1548 210 -353 48 -642 83 -647 79 -4 -5 12 -756 36 -1669 24 -913 43 -1712 44 -1776 0 -85 3 -118 13 -121 6 -2 107 -1 222 2 l210 6 -195 3 c-293 5 -166 18 250 25 195 4 474 9 620 11 146 3 387 7 535 10 149 3 434 7 635 10 201 3 460 7 575 10 116 3 363 7 550 10 187 3 420 8 518 11 164 6 177 5 177 -11 0 -10 -34 -229 -75 -486 -114 -714 -144 -943 -173 -1319 l-7 -95 -65 -7 c-36 -4 -110 -14 -165 -22 -55 -8 -136 -17 -180 -20 -80 -5 -80 -5 -57 14 16 14 22 28 20 47 -3 27 -5 28 -83 35 -44 4 -159 8 -255 10 l-175 3 -230 -91 c-126 -51 -270 -109 -320 -131 l-90 -38 3 -40 c2 -22 5 -41 5 -42 1 -1 76 -6 166 -11 97 -6 166 -14 170 -21 4 -6 15 -158 25 -338 10 -181 28 -416 40 -524 l22 -195 -28 -55 c-43 -86 -88 -218 -103 -300 -15 -85 -11 -149 13 -196 13 -26 14 -39 4 -81 -10 -45 -9 -58 12 -119 l23 -68 84 -48 c161 -91 224 -122 289 -143 l64 -20 -42 -17 c-23 -9 -42 -23 -42 -31 0 -7 -18 -36 -40 -64 -37 -46 -51 -82 -32 -82 4 0 67 -7 141 -15 l134 -14 44 25 c44 24 73 31 73 16 0 -5 53 -14 118 -21 65 -6 139 -18 166 -26 26 -8 150 -26 274 -40 350 -38 794 -85 810 -85 11 0 13 -20 10 -107 l-3 -107 33 -22 c32 -22 165 -50 250 -53 21 -1 22 -5 22 -89 0 -160 -12 -302 -25 -302 -32 0 -56 -35 -62 -92 l-6 -58 237 0 236 0 0 50 c0 48 -2 50 -41 72 l-41 23 7 305 c4 168 8 306 10 308 2 2 45 -1 97 -7 120 -14 252 -17 306 -7 43 8 61 23 125 100 l24 29 174 9 c200 10 206 11 479 71 199 44 275 71 425 149 76 40 210 245 231 355 7 39 14 45 84 66 42 13 69 30 116 77 60 59 61 62 93 176 30 106 40 156 57 297 3 26 8 47 12 47 4 0 968 -236 2142 -524 1174 -288 2136 -523 2138 -521 3 3 24 358 137 2360 14 248 37 648 50 890 14 242 37 638 50 880 14 242 30 517 35 610 5 94 21 370 35 615 14 245 59 1040 100 1767 41 727 75 1331 75 1343 l0 20 -2762 -1 c-2377 -1 -2770 -3 -2813 -15z m-5497 -869 c615 -80 1167 -152 1227 -160 61 -8 355 -47 655 -86 300 -39 561 -72 580 -75 277 -36 782 -102 990 -129 458 -59 584 -76 588 -79 1 -2 0 -163 -4 -359 l-7 -356 -181 5 c-162 3 -187 2 -235 -16 -103 -37 -142 -102 -166 -272 -17 -122 -35 -387 -35 -511 l0 -87 -24 15 c-21 14 -25 14 -45 -2 -30 -25 -39 -94 -17 -128 19 -30 60 -42 81 -25 25 21 19 41 -10 34 -25 -6 -55 9 -55 27 0 5 20 9 43 9 42 0 44 -2 55 -37 6 -21 20 -42 30 -48 109 -60 109 -60 267 -60 83 0 179 2 215 5 l65 5 0 -165 0 -165 -475 -5 c-527 -6 -507 -3 -535 -73 -8 -21 -27 -109 -41 -195 -15 -86 -29 -160 -33 -163 -3 -4 -220 -9 -481 -13 -261 -3 -1154 -15 -1983 -27 -830 -11 -1510 -19 -1512 -17 -1 2 -19 671 -39 1488 -20 817 -39 1558 -42 1648 -4 89 -3 162 1 162 4 0 509 -65 1123 -145z m3396 -2150 c4 -11 -2 -15 -24 -15 -29 0 -38 9 -23 23 12 12 41 7 47 -8z m936 -325 c0 -128 -3 -172 -12 -175 -7 -2 -58 -6 -113 -7 l-100 -3 -3 70 c-2 39 -1 116 3 172 l7 102 66 4 c37 2 86 4 110 5 l42 2 0 -170z m439 153 c3 -4 5 -81 3 -170 l-3 -163 -94 0 c-51 0 -99 2 -107 5 -10 4 -12 41 -10 176 l3 171 101 -5 c55 -3 104 -10 107 -14z m-309 -212 c0 -114 -1 -120 -20 -118 -19 1 -20 8 -20 119 0 111 1 118 20 118 19 0 20 -7 20 -119z m-565 -3541 c198 -15 249 -18 535 -35 146 -9 275 -18 286 -20 12 -3 24 -13 27 -24 4 -15 34 -26 166 -57 88 -21 161 -40 161 -43 0 -8 -22 -8 -490 -10 -425 -2 -485 2 -832 51 l-228 32 0 40 c0 23 3 52 7 65 l6 24 116 -7 c64 -4 175 -11 246 -16z m2199 -429 c4 -5 7 -75 7 -156 l1 -147 -31 -31 c-38 -38 -41 -23 -10 55 18 45 20 70 17 170 -3 108 1 134 16 109z m-717 -229 c-30 -31 -107 -78 -107 -65 0 4 -4 2 -9 -6 -5 -7 -15 -11 -22 -8 -9 3 0 11 23 21 20 8 42 21 50 29 12 12 78 54 87 56 3 1 -7 -12 -22 -27z m236 1 c-17 -49 -105 -113 -155 -113 l-32 0 38 39 c32 33 125 89 148 91 4 0 5 -8 1 -17z"/>
<path d="M7740 7460 c0 -132 1 -140 20 -140 18 0 20 8 22 98 l3 97 28 -47 c16 -27 32 -48 37 -48 4 0 22 21 39 48 l31 47 0 -108 c0 -98 2 -108 18 -105 15 3 17 19 20 141 2 130 2 137 -17 137 -12 0 -33 -18 -52 -45 -18 -25 -36 -45 -40 -45 -4 0 -23 25 -41 55 -20 33 -40 55 -50 55 -16 0 -18 -13 -18 -140z"/>
<path d="M8240 7416 c0 -110 3 -135 15 -140 12 -4 15 5 15 54 0 86 30 80 79 -17 23 -46 36 -58 51 -48 7 4 -2 31 -23 70 -29 54 -32 65 -20 81 15 21 17 68 3 94 -10 20 -59 40 -96 40 -24 0 -24 0 -24 -134z m80 80 c20 -26 8 -61 -22 -64 -27 -3 -28 -1 -28 37 0 33 3 41 19 41 10 0 24 -7 31 -14z"/>
<path d="M7985 7463 c4 -10 16 -42 28 -72 l21 -54 -22 -60 c-17 -47 -19 -63 -10 -68 17 -11 20 -6 58 91 18 47 38 99 46 117 18 41 18 55 -2 51 -9 -2 -24 -23 -34 -47 l-17 -45 -17 52 c-14 40 -22 52 -38 52 -15 0 -18 -4 -13 -17z"/>
<path d="M9093 7434 c-9 -23 11 -38 26 -20 13 16 7 36 -10 36 -5 0 -12 -7 -16 -16z"/>
<path d="M8446 7421 c-9 -10 -19 -34 -22 -52 -14 -86 58 -144 124 -101 16 11 27 81 18 116 -7 27 -51 56 -84 56 -10 0 -27 -8 -36 -19z m82 -33 c7 -7 12 -26 12 -44 0 -58 -51 -72 -79 -22 -29 51 27 106 67 66z"/>
<path d="M9397 7433 c-4 -3 -7 -14 -7 -24 0 -12 6 -16 20 -12 11 3 27 0 35 -7 22 -18 19 -51 -5 -57 -11 -3 -20 -13 -20 -22 0 -9 9 -22 20 -29 27 -16 26 -59 0 -67 -12 -4 -27 -1 -35 5 -12 10 -16 9 -22 -5 -4 -12 0 -23 12 -31 45 -33 95 1 95 65 0 22 -5 43 -10 46 -7 4 -7 12 0 25 12 22 13 70 2 86 -16 25 -70 42 -85 27z"/>
<path d="M8614 7395 c-24 -36 -20 -102 7 -131 28 -30 79 -32 104 -4 28 31 26 102 -4 134 -33 35 -84 36 -107 1z m72 -13 c13 -8 34 -46 34 -61 0 -13 -37 -51 -49 -51 -20 0 -41 33 -41 64 0 45 26 68 56 48z"/>
<path d="M9532 7293 l3 -128 44 -3 c64 -5 89 4 111 41 24 39 26 116 5 156 -18 35 -70 61 -124 61 l-42 0 3 -127z m101 76 c30 -14 47 -48 47 -94 0 -48 -29 -75 -80 -75 l-40 0 0 90 c0 89 0 90 25 90 13 0 35 -5 48 -11z"/>
<path d="M8774 7397 c-10 -27 1 -160 14 -165 9 -3 12 13 12 55 0 66 9 87 36 81 16 -3 19 -14 22 -76 2 -55 6 -72 17 -72 12 0 15 15 15 64 0 67 13 92 40 76 11 -7 15 -28 15 -75 0 -43 4 -66 13 -70 11 -4 18 62 12 135 -3 44 -45 63 -74 34 -9 -8 -16 -11 -16 -5 0 19 -38 33 -60 21 -14 -7 -20 -7 -20 0 0 15 -20 12 -26 -3z"/>
<path d="M9097 7373 c-4 -3 -7 -44 -7 -90 0 -67 3 -83 15 -83 12 0 15 17 15 90 0 83 -5 101 -23 83z"/>
<path d="M9160 7284 c0 -117 25 -113 32 6 3 37 6 45 23 45 18 0 20 -8 23 -72 2 -56 6 -73 17 -73 12 0 15 16 15 73 0 86 -13 105 -72 105 l-38 0 0 -84z"/>
<path d="M7740 6651 l0 -141 58 0 c45 0 63 5 80 20 28 26 28 69 1 104 -16 20 -19 30 -10 39 17 17 13 62 -7 87 -13 16 -32 24 -70 28 l-52 5 0 -142z m88 87 c17 -17 15 -55 -4 -62 -35 -13 -44 -7 -44 34 0 32 4 40 18 40 10 0 23 -5 30 -12z m20 -120 c17 -17 15 -55 -4 -62 -9 -3 -27 -6 -40 -6 -21 0 -24 4 -24 40 0 37 2 40 28 40 15 0 33 -5 40 -12z"/>
<path d="M7930 6639 c0 -108 3 -140 13 -137 9 3 13 43 15 141 2 117 0 137 -13 137 -13 0 -15 -21 -15 -141z"/>
<path d="M8410 6705 c0 -42 -2 -45 -23 -40 -53 14 -94 -70 -67 -136 14 -33 44 -49 91 -49 l29 0 0 135 c0 113 -2 135 -15 135 -11 0 -15 -12 -15 -45z m0 -130 c0 -52 -1 -55 -25 -55 -36 0 -52 38 -35 80 9 21 19 30 36 30 22 0 24 -4 24 -55z"/>
<path d="M8890 6701 c0 -17 6 -21 35 -21 l35 0 0 -109 c0 -86 3 -110 15 -114 12 -5 15 12 17 106 l3 112 33 3 c37 4 44 27 9 34 -12 2 -50 5 -85 7 -57 2 -62 1 -62 -18z"/>
<path d="M9080 6580 c0 -107 3 -130 15 -130 10 0 15 16 17 61 2 46 8 65 21 73 26 16 37 -7 37 -76 0 -47 3 -58 16 -58 14 0 16 11 12 76 -4 82 -14 97 -60 91 -27 -3 -28 -2 -28 45 0 36 -4 48 -15 48 -13 0 -15 -21 -15 -130z"/>
<path d="M8004 6648 c-29 -55 -4 -137 46 -153 27 -9 70 12 70 34 0 17 -3 18 -29 8 -23 -8 -33 -8 -45 2 -30 25 -19 40 32 43 46 3 47 4 44 33 -5 42 -29 65 -68 65 -27 0 -36 -6 -50 -32z m70 -4 c31 -12 18 -34 -19 -34 -33 0 -35 2 -25 20 11 21 19 24 44 14z"/>
<path d="M8156 6673 c-3 -3 -6 -46 -6 -95 0 -80 2 -89 18 -86 14 3 18 17 22 73 4 58 8 70 24 73 27 6 36 -15 36 -85 0 -49 3 -63 15 -63 12 0 15 15 15 71 0 92 -10 110 -59 108 -20 -2 -42 0 -48 4 -5 4 -13 4 -17 0z"/>
<path d="M9627 6673 c-4 -3 -7 -62 -7 -130 0 -101 3 -123 15 -123 10 0 15 15 17 58 l3 57 38 3 c44 4 53 32 10 32 -39 0 -55 13 -51 41 2 20 10 25 41 27 22 2 37 8 37 16 0 19 -87 35 -103 19z"/>
<path d="M9816 6663 c-3 -3 -6 -59 -6 -124 0 -126 1 -129 55 -129 33 0 55 36 55 91 0 52 -25 85 -60 76 -18 -5 -20 0 -20 38 0 42 -10 62 -24 48z m75 -147 c10 -36 -5 -66 -31 -66 -17 0 -20 7 -20 43 0 24 3 47 7 51 14 14 37 0 44 -28z"/>
<path d="M8496 6641 c-39 -43 -29 -126 19 -157 32 -21 78 -10 83 20 3 15 -1 17 -27 11 -34 -7 -61 7 -61 33 0 11 9 14 45 10 44 -5 45 -5 45 24 0 33 -39 78 -68 78 -10 0 -27 -8 -36 -19z m72 -45 c3 -16 0 -18 -24 -12 -35 9 -38 12 -29 26 11 17 49 7 53 -14z"/>
<path d="M8630 6560 c0 -73 3 -90 15 -90 11 0 15 12 15 51 0 67 14 93 46 85 19 -5 24 -2 24 13 0 26 -29 35 -51 15 -18 -16 -19 -16 -19 -1 0 10 -7 17 -15 17 -12 0 -15 -17 -15 -90z"/>
<path d="M9752 6633 c5 -25 28 -28 28 -4 0 12 -6 21 -16 21 -9 0 -14 -7 -12 -17z"/>
<path d="M9276 6598 c-13 -18 -16 -19 -16 -5 0 9 -7 17 -15 17 -12 0 -15 -16 -15 -85 0 -69 3 -85 15 -85 11 0 15 13 15 53 0 62 19 98 42 79 8 -6 18 -9 21 -5 13 12 7 32 -12 43 -16 8 -23 6 -35 -12z"/>
<path d="M9374 6602 c-20 -13 -34 -50 -34 -87 0 -64 66 -108 104 -69 24 23 19 31 -14 26 -29 -4 -60 11 -60 29 0 5 20 9 45 9 39 0 45 3 45 21 0 40 -30 79 -60 79 -8 0 -20 -4 -26 -8z m44 -34 c19 -19 14 -28 -18 -28 -16 0 -30 4 -30 8 0 9 21 32 30 32 3 0 11 -5 18 -12z"/>
<path d="M9496 6578 c-21 -29 -20 -97 0 -126 12 -18 24 -22 52 -20 30 2 38 7 40 26 3 21 2 22 -17 10 -25 -15 -54 -2 -60 27 -3 16 2 17 38 11 40 -6 41 -5 41 22 0 38 -26 72 -55 72 -13 0 -31 -10 -39 -22z m64 -28 c10 -18 8 -20 -20 -20 -32 0 -33 1 -24 24 8 22 31 20 44 -4z"/>
<path d="M9750 6505 c0 -69 3 -85 15 -85 12 0 15 15 15 79 0 61 -3 80 -15 85 -13 4 -15 -8 -15 -79z"/>
<path d="M8753 6471 c1 -37 5 -47 14 -39 19 16 25 45 13 68 -18 34 -29 22 -27 -29z"/>
<path d="M7740 6249 c0 -128 2 -140 18 -137 13 2 18 15 20 61 2 31 7 57 12 57 15 0 46 -38 65 -80 12 -26 25 -40 37 -40 10 0 18 3 18 6 0 9 -33 78 -40 84 -16 13 -18 42 -4 69 30 60 -15 121 -87 121 l-39 0 0 -141z m90 86 c20 -24 4 -65 -25 -65 -22 0 -25 4 -25 40 0 32 4 40 19 40 10 0 24 -7 31 -15z"/>
<path d="M8700 6343 c-44 -17 -77 -97 -66 -159 5 -23 21 -51 42 -72 32 -32 38 -34 84 -30 28 3 52 7 54 9 3 2 6 31 7 64 l3 60 -34 0 c-25 0 -36 -5 -38 -17 -2 -13 3 -18 18 -18 17 0 21 -5 18 -27 -2 -23 -8 -29 -35 -31 -73 -7 -112 98 -62 163 18 22 28 26 58 23 20 -3 44 -8 54 -12 13 -6 17 -3 17 13 0 33 -71 52 -120 34z"/>
<path d="M8900 6338 c-31 -12 -40 -25 -40 -66 0 -26 8 -41 40 -69 24 -22 40 -45 40 -58 0 -31 -36 -39 -61 -14 -19 19 -19 19 -19 -10 0 -23 6 -31 28 -39 46 -16 82 10 82 61 0 36 -15 64 -52 95 -50 42 -26 83 35 57 13 -5 17 -2 17 12 0 26 -38 43 -70 31z"/>
<path d="M9070 6337 c0 -1 -20 -60 -45 -130 -40 -114 -43 -127 -26 -127 12 0 21 11 27 33 9 30 13 32 53 32 42 0 45 -2 56 -35 13 -37 42 -50 37 -15 -3 18 -58 180 -77 228 -6 14 -25 25 -25 14z m27 -112 c11 -34 11 -35 -17 -35 -28 0 -28 1 -17 35 6 19 13 35 17 35 4 0 11 -16 17 -35z"/>
<path d="M9200 6200 c0 -109 2 -130 15 -130 12 0 15 13 15 55 0 54 1 55 28 55 40 0 62 19 68 60 8 51 -29 90 -86 90 l-40 0 0 -130z m90 69 c14 -26 -3 -49 -36 -49 -21 0 -24 5 -24 35 0 31 3 35 25 35 14 0 29 -8 35 -21z"/>
<path d="M8380 6277 c-16 -21 -20 -32 -12 -35 8 -2 12 -25 12 -61 0 -67 16 -94 51 -89 17 2 25 10 27 28 3 19 1 22 -8 13 -24 -22 -40 -3 -40 48 0 44 3 49 25 55 30 7 28 28 -3 32 -11 2 -22 11 -24 21 -2 15 -7 13 -28 -12z"/>
<path d="M7955 6270 c-9 -10 -20 -39 -22 -63 -4 -36 -1 -48 22 -75 15 -18 36 -32 47 -32 31 0 58 19 58 40 0 17 -3 18 -18 9 -27 -17 -72 -3 -72 21 0 17 7 20 50 20 52 0 56 4 41 43 -22 56 -72 74 -106 37z m63 -22 c22 -22 14 -39 -15 -32 -37 9 -38 11 -23 29 15 18 22 19 38 3z"/>
<path d="M8108 6279 c-10 -5 -18 -19 -18 -30 0 -17 3 -18 21 -9 11 7 27 9 35 6 24 -9 15 -32 -20 -49 -39 -18 -52 -47 -37 -76 9 -16 21 -20 66 -20 41 0 55 4 55 15 0 8 -4 14 -10 14 -6 0 -10 26 -10 58 0 32 -6 65 -12 74 -17 22 -49 29 -70 17z m48 -135 c-8 -21 -36 -17 -36 6 0 24 33 46 38 24 2 -8 1 -22 -2 -30z"/>
<path d="M8264 6272 c-34 -23 -46 -111 -19 -149 21 -30 72 -40 94 -19 13 14 14 18 2 25 -8 5 -20 7 -27 4 -26 -10 -54 16 -54 51 0 40 21 60 55 54 19 -4 25 -1 25 12 0 26 -49 40 -76 22z"/>
<path d="M8475 6130 c-4 -6 -1 -17 5 -25 6 -8 9 -23 5 -34 -5 -16 -3 -19 9 -15 19 7 29 38 21 64 -7 21 -30 27 -40 10z"/>
<path d="M1270 8100 c0 -5 7 -7 15 -4 8 4 15 8 15 10 0 2 -7 4 -15 4 -8 0 -15 -4 -15 -10z"/>
<path d="M1135 8018 c-66 -44 -112 -77 -103 -74 14 4 213 129 227 142 2 2 2 6 0 8 -2 3 -58 -32 -124 -76z"/>
<path d="M1190 7957 c-91 -55 -311 -196 -370 -236 -30 -21 -72 -46 -92 -56 -21 -9 -38 -21 -38 -26 0 -5 -7 -9 -15 -9 -8 0 -15 -3 -15 -7 0 -5 -18 -17 -40 -27 -22 -11 -40 -23 -40 -28 0 -4 -7 -8 -15 -8 -8 0 -15 -4 -15 -10 0 -5 -7 -10 -15 -10 -8 0 -15 -4 -15 -10 0 -5 -11 -12 -25 -16 -14 -3 -25 -10 -25 -15 0 -5 -4 -9 -10 -9 -5 0 -18 -7 -27 -15 -10 -8 -74 -50 -143 -93 -87 -54 -129 -87 -139 -107 -16 -34 -29 -430 -30 -931 -1 -160 -4 -386 -8 -502 l-6 -212 -55 0 -55 0 6 -72 c4 -40 12 -163 18 -273 7 -110 16 -204 20 -209 5 -6 9 -27 9 -47 0 -20 7 -42 15 -49 8 -7 15 -18 15 -25 0 -8 5 -15 12 -17 8 -3 8 -243 0 -994 -7 -544 -8 -1014 -4 -1045 8 -56 19 -75 99 -181 24 -31 43 -62 43 -70 0 -11 -109 -63 -203 -98 l-27 -10 0 -284 0 -284 25 11 c14 7 25 16 25 20 0 5 5 5 10 2 6 -3 10 -1 10 6 0 7 3 10 6 7 3 -4 107 45 231 108 124 63 227 114 229 114 1 0 -1 -14 -6 -31 -8 -28 -5 -153 6 -246 5 -42 6 -43 43 -43 l37 0 19 -320 c10 -177 16 -323 13 -325 -3 -3 -137 8 -298 25 -162 16 -306 30 -322 30 l-28 0 0 -393 0 -392 288 -33 c158 -18 310 -36 338 -39 29 -3 58 -9 64 -13 11 -7 35 -281 39 -442 1 -17 24 -18 332 -18 l331 0 -6 93 c-3 50 -8 135 -12 187 l-6 96 152 69 c83 38 154 73 157 78 3 5 2 57 -2 116 l-7 108 -169 186 -169 185 -5 104 c-3 57 -8 122 -10 146 -5 48 0 51 35 19 27 -24 153 -118 243 -182 32 -22 79 -56 106 -75 26 -19 103 -73 170 -120 68 -47 138 -96 156 -110 19 -14 106 -76 195 -139 89 -63 158 -117 153 -121 -4 -4 -96 -24 -203 -45 -107 -20 -211 -43 -230 -49 -51 -17 -132 -76 -127 -90 3 -7 82 -112 177 -234 l172 -222 369 0 369 0 -18 35 c-9 19 -21 35 -27 35 -5 0 -31 25 -57 54 -60 68 -66 110 -17 120 54 10 77 7 92 -15 8 -11 55 -64 104 -116 48 -53 90 -100 91 -104 2 -5 20 -9 39 -9 l35 0 -36 44 c-20 24 -36 49 -36 55 0 6 -6 11 -14 11 -15 0 -106 102 -106 119 0 6 -6 11 -13 11 -8 0 -24 12 -38 27 l-24 27 30 -19 c17 -10 112 -76 213 -147 l182 -128 566 2 565 3 -246 210 c-136 116 -297 253 -359 305 -61 52 -115 99 -121 105 -5 7 -44 40 -85 76 -41 35 -81 70 -88 77 -27 25 -49 30 -147 37 -62 4 -118 3 -147 -4 l-48 -11 -82 61 c-45 33 -88 72 -95 87 -52 99 -104 142 -174 142 -37 0 -57 12 -193 113 -107 80 -1349 995 -1373 1012 -2 1 -7 71 -12 156 -7 108 -3 523 12 1401 12 685 24 1248 27 1251 7 6 363 36 371 31 3 -2 9 -74 13 -161 23 -496 34 -649 50 -687 10 -23 19 -83 23 -152 5 -95 9 -114 22 -114 9 0 165 101 346 224 l330 224 -2 168 c-2 93 -21 555 -43 1026 -22 472 -40 875 -40 896 l0 39 -359 111 c-198 62 -367 112 -376 112 -16 0 -17 -11 -11 -112 5 -83 4 -123 -6 -150 -14 -40 -14 -36 20 -703 10 -192 16 -353 13 -357 -3 -3 -84 -10 -180 -14 l-173 -7 6 169 c3 93 13 637 22 1209 19 1205 20 1191 -56 1210 -18 4 -40 -3 -80 -28z m121 -6274 c13 -16 12 -17 -3 -4 -10 7 -18 15 -18 17 0 8 8 3 21 -13z m62 -68 c21 -25 36 -45 34 -45 -2 0 -23 20 -46 45 -23 25 -38 45 -34 45 5 0 26 -20 46 -45z m128 -112 c13 -16 12 -17 -3 -4 -10 7 -18 15 -18 17 0 8 8 3 21 -13z m74 -59 l40 -36 -47 33 c-27 18 -48 34 -48 36 0 10 20 -2 55 -33z m225 -74 c8 -5 12 -11 9 -14 -3 -3 -14 1 -25 9 -21 16 -8 20 16 5z m78 -231 c99 -66 98 -65 82 -84 -20 -24 -43 -18 -113 33 -62 44 -81 74 -60 95 10 10 8 11 91 -44z m262 -14 c10 -12 10 -15 -3 -15 -8 0 -17 7 -21 15 -3 8 -2 15 3 15 5 0 14 -7 21 -15z m83 -219 c42 -28 77 -56 77 -63 0 -14 -18 -26 -43 -30 -17 -3 -139 76 -153 99 -9 14 17 59 30 51 6 -3 46 -29 89 -57z m462 -478 c19 -13 35 -26 35 -29 0 -4 -26 -10 -57 -13 -101 -12 -111 -15 -121 -46 -9 -23 -19 -30 -58 -38 -27 -6 -52 -8 -56 -6 -4 3 -8 -1 -8 -8 0 -7 34 -26 75 -42 56 -21 85 -40 115 -72 22 -24 40 -46 40 -49 0 -12 -39 16 -57 41 -17 23 -23 26 -48 17 -24 -8 -42 -4 -100 20 -38 16 -76 34 -83 40 -8 6 -38 11 -68 12 -43 0 -57 5 -69 22 -14 19 -13 21 10 27 28 7 33 21 10 30 -8 3 -15 11 -15 18 0 9 63 27 193 55 105 22 200 41 210 42 9 1 33 -9 52 -21z"/>
<path d="M230 7415 c-45 -33 -30 -32 18 0 20 14 32 25 27 25 -6 -1 -26 -12 -45 -25z"/>
<path d="M9278 5473 c28 -2 76 -2 105 0 28 2 5 3 -53 3 -58 0 -81 -1 -52 -3z"/>
<path d="M9503 5473 c9 -2 23 -2 30 0 6 3 -1 5 -18 5 -16 0 -22 -2 -12 -5z"/>
<path d="M8743 5463 c31 -2 83 -2 115 0 31 2 5 3 -58 3 -63 0 -89 -1 -57 -3z"/>
<path d="M8983 5463 c9 -2 23 -2 30 0 6 3 -1 5 -18 5 -16 0 -22 -2 -12 -5z"/>
<path d="M8218 5453 c34 -2 88 -2 120 0 31 2 3 3 -63 3 -66 0 -92 -1 -57 -3z"/>
<path d="M8443 5453 c9 -2 25 -2 35 0 9 3 1 5 -18 5 -19 0 -27 -2 -17 -5z"/>
<path d="M7693 5443 c31 -2 83 -2 115 0 31 2 5 3 -58 3 -63 0 -89 -1 -57 -3z"/>
<path d="M7918 5443 c12 -2 32 -2 45 0 12 2 2 4 -23 4 -25 0 -35 -2 -22 -4z"/>
<path d="M7158 5433 c34 -2 90 -2 125 0 34 2 6 3 -63 3 -69 0 -97 -1 -62 -3z"/>
<path d="M7398 5433 c12 -2 32 -2 45 0 12 2 2 4 -23 4 -25 0 -35 -2 -22 -4z"/>
<path d="M6623 5423 c37 -2 97 -2 135 0 37 2 6 3 -68 3 -74 0 -105 -1 -67 -3z"/>
<path d="M6858 5423 c12 -2 32 -2 45 0 12 2 2 4 -23 4 -25 0 -35 -2 -22 -4z"/>
<path d="M6108 5413 c34 -2 90 -2 125 0 34 2 6 3 -63 3 -69 0 -97 -1 -62 -3z"/>
<path d="M6323 5413 c15 -2 39 -2 55 0 15 2 2 4 -28 4 -30 0 -43 -2 -27 -4z"/>
</g>
</svg>
